<?xml version="1.0" standalone="no"?><!DOCTYPE svg PUBLIC "-//W3C//DTD SVG 1.1//EN" "http://www.w3.org/Graphics/SVG/1.1/DTD/svg11.dtd"><svg t="1721018850127" class="icon" viewBox="0 0 1024 1024" version="1.1" xmlns="http://www.w3.org/2000/svg" p-id="5234" id="mx_n_1721018850127" xmlns:xlink="http://www.w3.org/1999/xlink" width="64" height="64"><path d="M228.4544 166.656a33.024 33.024 0 0 1 47.4112-5.4272 34.304 34.304 0 0 1 5.3248 47.7696l-67.584 85.3504a33.024 33.024 0 0 1-47.36 5.4272 34.304 34.304 0 0 1-5.3248-47.7696l67.584-85.3504z m545.1776-5.4272a32.9728 32.9728 0 0 1 47.36 5.4272l67.584 85.3504a33.9968 33.9968 0 0 1-5.3248 47.7696 32.9728 32.9728 0 0 1-47.4112-5.4272l-67.584-85.3504a34.1504 34.1504 0 0 1 5.376-47.7696zM254.8224 529.0496c0-150.8352 120.9344-272.9984 269.9264-272.9984s269.9264 122.1632 269.9264 272.9984c0 150.8352-120.832 273.2032-269.9264 273.2032-149.1456 0-269.9264-122.368-269.9264-273.2032z m269.9264-341.1456c-186.368 0-337.5104 152.832-337.5104 341.2992C187.2384 717.7216 338.432 870.4 524.8 870.4c186.368 0 337.4592-152.8832 337.4592-341.3504 0-188.416-151.1424-341.1456-337.4592-341.1456z m33.6896 187.5968a33.9968 33.9968 0 0 0-33.6896-34.048c-18.5344 0-33.6896 15.36-33.6896 34.048v137.5232l-89.088 75.1104a34.5088 34.5088 0 0 0-4.352 48.0768c11.8272 14.336 33.1776 16.384 47.5648 4.352l101.2224-85.3504a34.2016 34.2016 0 0 0 12.1856-26.3168V375.5008h-0.1536z" fill="#2c2c2c" p-id="5235"></path></svg>