<svg xmlns="http://www.w3.org/2000/svg" xmlns:xlink="http://www.w3.org/1999/xlink" fill="none" version="1.1" width="34" height="34" viewBox="0 0 34 34"><g><g><g transform="matrix(-1,0,0,-1,68.000244140625,68)"><rect x="34.0001220703125" y="34" width="34" height="34" rx="17" fill="#000000" fill-opacity="0.10000000149011612"/></g><g><path d="M12.5824520703125,11.25002C12.2490920703125,10.9166603,11.7086180703125,10.9166603,11.3752630703125,11.250018C11.0419040703125,11.583374,11.0419040703125,12.123850000000001,11.3752600703125,12.45721C11.3752600703125,12.45721,12.5824520703125,11.25002,12.5824520703125,11.25002C12.5824520703125,11.25002,12.5824520703125,11.25002,12.5824520703125,11.25002ZM21.5429220703125,22.6249C21.8763220703125,22.9583,22.416722070312503,22.9583,22.7501220703125,22.6249C23.0834220703125,22.291600000000003,23.0834220703125,21.750999999999998,22.7501220703125,21.4177C22.7501220703125,21.4177,21.5429220703125,22.6249,21.5429220703125,22.6249C21.5429220703125,22.6249,21.5429220703125,22.6249,21.5429220703125,22.6249ZM11.2501430703125,21.430300000000003C10.9167870703125,21.7637,10.9167796703125,22.3041,11.2501340703125,22.6375C11.5834870703125,22.9708,12.1239620703125,22.9708,12.4573220703125,22.6375C12.4573220703125,22.6375,11.2501430703125,21.430300000000003,11.2501430703125,21.430300000000003C11.2501430703125,21.430300000000003,11.2501430703125,21.430300000000003,11.2501430703125,21.430300000000003ZM22.605922070312502,12.48907C22.9392220703125,12.15572,22.9392220703125,11.615243,22.605922070312502,11.281885C22.272522070312498,10.948526,21.7321220703125,10.948526,21.3986220703125,11.281876C21.3986220703125,11.281876,22.605922070312502,12.48907,22.605922070312502,12.48907C22.605922070312502,12.48907,22.605922070312502,12.48907,22.605922070312502,12.48907ZM11.3752600703125,12.45721C11.3752600703125,12.45721,16.4028620703125,17.48482,16.4028620703125,17.48482C16.4028620703125,17.48482,17.6100520703125,16.277630000000002,17.6100520703125,16.277630000000002C17.6100520703125,16.277630000000002,12.5824520703125,11.25002,12.5824520703125,11.25002C12.5824520703125,11.25002,11.3752600703125,12.45721,11.3752600703125,12.45721C11.3752600703125,12.45721,11.3752600703125,12.45721,11.3752600703125,12.45721ZM16.4028620703125,17.48482C16.4028620703125,17.48482,21.5429220703125,22.6249,21.5429220703125,22.6249C21.5429220703125,22.6249,22.7501220703125,21.4177,22.7501220703125,21.4177C22.7501220703125,21.4177,17.6100520703125,16.277630000000002,17.6100520703125,16.277630000000002C17.6100520703125,16.277630000000002,16.4028620703125,17.48482,16.4028620703125,17.48482C16.4028620703125,17.48482,16.4028620703125,17.48482,16.4028620703125,17.48482ZM12.4573220703125,22.6375C12.4573220703125,22.6375,17.6100420703125,17.48482,17.6100420703125,17.48482C17.6100420703125,17.48482,16.4028720703125,16.27762,16.4028720703125,16.27762C16.4028720703125,16.27762,11.2501430703125,21.430300000000003,11.2501430703125,21.430300000000003C11.2501430703125,21.430300000000003,12.4573220703125,22.6375,12.4573220703125,22.6375C12.4573220703125,22.6375,12.4573220703125,22.6375,12.4573220703125,22.6375ZM17.6100420703125,17.48482C17.6100420703125,17.48482,22.605922070312502,12.48907,22.605922070312502,12.48907C22.605922070312502,12.48907,21.3986220703125,11.281876,21.3986220703125,11.281876C21.3986220703125,11.281876,16.4028720703125,16.27762,16.4028720703125,16.27762C16.4028720703125,16.27762,17.6100420703125,17.48482,17.6100420703125,17.48482C17.6100420703125,17.48482,17.6100420703125,17.48482,17.6100420703125,17.48482Z" fill="#FFFFFF" fill-opacity="1"/><path d="M18.2136520703125,16.52768L17.7868320703125,16.10085L17.3600120703125,15.67404L21.3986220703125,11.635426L22.252322070312502,12.48907L18.2136520703125,16.52768ZM17.8600920703125,16.881230000000002L17.6100520703125,16.63118L17.3600120703125,16.881230000000002L17.6100420703125,17.13127L17.8600920703125,16.881230000000002ZM17.2564920703125,17.48482L17.0064520703125,17.23478L16.7564120703125,17.48482L17.0064520703125,17.73486L17.2564920703125,17.48482ZM17.3600020703125,18.08841L17.7868220703125,17.6616L18.2136420703125,17.23478L22.3965220703125,21.4177L21.5429220703125,22.2714L17.3600020703125,18.08841ZM16.6528920703125,18.08841L16.2260820703125,17.6616L15.799262070312501,17.23478L11.6036990703125,21.430300000000003L12.4573220703125,22.2839L16.6528920703125,18.08841ZM12.6343820703125,22.8139L17.0064420703125,18.44196L21.3662220703125,22.8017Q21.6894220703125,23.1249,22.1465220703125,23.1249Q22.6036220703125,23.1249,22.9269220703125,22.8017Q23.2501220703125,22.4785,23.2501220703125,22.0213Q23.2501220703125,21.5642,22.9269220703125,21.2409L18.5672020703125,16.881230000000002L22.7826220703125,12.66585Q23.105922070312502,12.34261,23.105922070312502,11.885481Q23.105922070312502,11.428351,22.7826220703125,11.105109Q22.4594220703125,10.781867,22.002322070312502,10.781865Q21.5455220703125,10.781862,21.2224220703125,11.104561L21.2219220703125,11.105078L21.2218220703125,11.105171L17.0064620703125,15.32048L12.7592220703125,11.0732432Q12.4359920703125,10.75,11.9788570703125,10.75Q11.5217260703125,10.75,11.1984850703125,11.0732422Q10.8752440703125,11.396481,10.8752430703125,11.853612Q10.8752430703125,12.31074,11.1984840703125,12.63398L15.4457120703125,16.88122L11.0733667703125,21.253500000000003Q10.7501260703125,21.5768,10.7501220703125,22.0339Q10.7501180703125,22.491,11.0733572703125,22.8142Q11.3965950703125,23.1375,11.8537260703125,23.1375Q12.3106220703125,23.1375,12.6337720703125,22.8146L12.6340920703125,22.8142L12.6343820703125,22.8139ZM12.0668820703125,22.6006L11.2870220703125,21.820700000000002Q11.2501230703125,21.9197,11.2501220703125,22.0339Q11.2501200703125,22.2839,11.4269100703125,22.4607Q11.603702070312501,22.6375,11.8537260703125,22.6375Q11.9679440703125,22.6375,12.0668820703125,22.6006ZM15.799262070312501,16.52767L11.7288140703125,12.45721L12.5824520703125,11.603573L16.6529020703125,15.67404L15.799262070312501,16.52767ZM16.1528220703125,16.88122L16.4028620703125,17.13127L16.6529020703125,16.88122L16.4028620703125,16.63118L16.1528220703125,16.88122ZM17.0064620703125,16.52767L16.7564220703125,16.277630000000002L17.0064620703125,16.02759L17.2565020703125,16.277630000000002L17.0064620703125,16.52767ZM12.1920120703125,11.286899Q12.0930820703125,11.25,11.9788560703125,11.25Q11.7288330703125,11.25,11.5520400703125,11.426794Q11.3752440703125,11.603589,11.3752430703125,11.853612Q11.3752430703125,11.967834,11.4121410703125,12.06677L12.1920120703125,11.286899ZM21.7891220703125,11.318769L22.5690220703125,12.09864Q22.605922070312502,11.999704,22.605922070312502,11.885481Q22.605922070312502,11.635457,22.429122070312502,11.458661Q22.252322070312502,11.281866,22.002322070312502,11.281865Q21.888022070312502,11.281864,21.7891220703125,11.318769ZM22.7132220703125,21.8081L21.9334220703125,22.588Q22.0323220703125,22.6249,22.1465220703125,22.6249Q22.3965220703125,22.6249,22.5733220703125,22.4481Q22.7501220703125,22.2713,22.7501220703125,22.0213Q22.7501220703125,21.9071,22.7132220703125,21.8081Z" fill-rule="evenodd" fill="#FFFFFF" fill-opacity="1"/></g></g></g></svg>