<?xml version="1.0" standalone="no"?><!DOCTYPE svg PUBLIC "-//W3C//DTD SVG 1.1//EN" "http://www.w3.org/Graphics/SVG/1.1/DTD/svg11.dtd"><svg t="1721013849308" class="icon" viewBox="0 0 1024 1024" version="1.1" xmlns="http://www.w3.org/2000/svg" p-id="731" xmlns:xlink="http://www.w3.org/1999/xlink" width="200" height="200"><path d="M512 850.368 220.096 538.752c-55.68-59.968-82.432-121.216-79.424-182.208 4.032-78.912 57.216-126.912 59.52-128.896 42.176-35.968 87.232-54.08 134.336-54.08 81.088 0 145.984 53.44 177.408 85.376 31.552-32 96.192-85.376 177.536-85.376 47.104 0 92.16 18.112 134.144 53.76 2.624 2.24 55.808 50.24 59.776 129.152 3.136 60.928-23.616 122.24-79.36 182.144L512 850.368 512 850.368M233.92 266.624 233.92 266.624z" fill="#FF5757" p-id="732" data-spm-anchor-id="a313x.manage_type_mylikes.0.i4.38e53a81jfGrGT" class="selected"></path></svg>