<?xml version="1.0" standalone="no"?><!DOCTYPE svg PUBLIC "-//W3C//DTD SVG 1.1//EN" "http://www.w3.org/Graphics/SVG/1.1/DTD/svg11.dtd"><svg class="icon" width="200px" height="200.00px" viewBox="0 0 1024 1024" version="1.1" xmlns="http://www.w3.org/2000/svg"><path fill="#ffffff" d="M512 850.368 220.096 538.752c-55.68-59.968-82.432-121.216-79.424-182.208 3.968-78.912 57.216-126.912 59.52-128.896 42.176-35.968 87.232-54.08 134.336-54.08 81.088 0 145.984 53.44 177.408 85.376 31.552-32 96.192-85.376 177.6-85.376 47.104 0 92.16 18.112 134.08 53.76 2.624 2.24 55.808 50.24 59.776 129.152 3.072 60.928-23.68 122.24-79.36 182.144L512 850.368 512 850.368M233.92 266.624c0 0-39.36 36.096-41.792 93.248C190.08 406.272 212.16 454.656 257.792 503.552L512 774.976l254.272-271.424c45.44-49.088 67.712-97.408 65.536-143.68-2.496-57.152-41.792-93.312-42.304-93.632-31.744-27.2-65.536-41.152-100.032-41.152-86.848 0-156.544 87.488-157.248 88.32L511.424 340.032 491.2 312.896C490.944 312.512 421.696 225.152 334.464 225.152 299.968 225.152 266.176 239.104 233.92 266.624L233.92 266.624 233.92 266.624M233.92 266.624 233.92 266.624z"  /></svg>