<?xml version="1.0" standalone="no"?><!DOCTYPE svg PUBLIC "-//W3C//DTD SVG 1.1//EN" "http://www.w3.org/Graphics/SVG/1.1/DTD/svg11.dtd"><svg class="icon" width="200px" height="200.00px" viewBox="0 0 1024 1024" version="1.1" xmlns="http://www.w3.org/2000/svg"><path fill="#515151" d="M836.266667 563.2c-8.533333-8.533333-21.333333-8.533333-29.866667 0l-34.133333 34.133333V337.066667c0-46.933333-38.4-85.333333-85.333334-85.333334H320c-12.8 0-21.333333 8.533333-21.333333 21.333334s8.533333 21.333333 21.333333 21.333333h371.2c25.6 0 42.666667 17.066667 42.666667 42.666667V597.333333l-34.133334-34.133333c-8.533333-8.533333-21.333333-8.533333-29.866666 0s-8.533333 21.333333 0 29.866667l68.266666 68.266666c4.266667 4.266667 8.533333 4.266667 17.066667 4.266667s12.8 0 17.066667-4.266667l68.266666-68.266666c0-8.533333 0-21.333333-4.266666-29.866667zM704 729.6H337.066667c-25.6 0-42.666667-17.066667-42.666667-42.666667v-251.733333l29.866667 29.866667c4.266667 4.266667 12.8 8.533333 17.066666 8.533333s12.8 0 17.066667-4.266667c8.533333-8.533333 8.533333-21.333333 0-29.866666L285.866667 366.933333c-4.266667 0-8.533333-4.266667-12.8-4.266666s-12.8 4.266667-17.066667 4.266666l-68.266667 68.266667c-8.533333 8.533333-8.533333 21.333333 0 29.866667s21.333333 8.533333 29.866667 0l29.866667-29.866667v251.733333c0 46.933333 38.4 85.333333 85.333333 85.333334h371.2c12.8 0 21.333333-8.533333 21.333333-21.333334s-8.533333-21.333333-21.333333-21.333333z" /></svg>